<?xml version="1.0" encoding="UTF-8"?>
<svg width="24px" height="25px" viewBox="0 0 24 25" version="1.1" xmlns="http://www.w3.org/2000/svg" xmlns:xlink="http://www.w3.org/1999/xlink">
    <title>形状结合</title>
    <defs>
        <path d="M11.5402958,17.9610396 L8.43213526,19.5699569 C7.47758121,20.0640751 6.30320034,19.6908181 5.80908218,18.736264 C5.61347207,18.3583778 5.54709701,17.9267973 5.62011894,17.5075968 L6.20230399,14.165419 C6.25941438,13.8375626 6.14968299,13.5027773 5.90958165,13.272337 L3.44049135,10.902596 C2.67251938,10.165525 2.64746913,8.94544669 3.38454006,8.17747472 C3.68258862,7.86693074 4.07601152,7.66509271 4.50210319,7.6041305 L7.95537635,7.11006038 C8.2797922,7.06364523 8.56087727,6.86121725 8.70772861,6.56824167 L10.2366442,3.51798057 C10.72479,2.54410608 11.9099915,2.15034511 12.883866,2.63849084 C13.2642066,2.82913311 13.5727135,3.13763997 13.7633558,3.51798057 L15.2922714,6.56824167 C15.4391227,6.86121725 15.7202078,7.06364523 16.0446236,7.11006038 L19.4978968,7.6041305 C20.551617,7.7548894 21.2836118,8.73131263 21.1328529,9.78503283 C21.0718907,10.2111245 20.8700526,10.6045474 20.5595086,10.902596 L18.0904184,13.272337 C17.850317,13.5027773 17.7405856,13.8375626 17.797696,14.165419 L18.3798811,17.5075968 C18.5643371,18.5665123 17.8554476,19.5744641 16.796532,19.7589202 C16.3773315,19.8319421 15.9457509,19.765567 15.5678647,19.5699569 L12.4597042,17.9610396 C12.1714027,17.8118023 11.8285973,17.8118023 11.5402958,17.9610396 Z" id="path-1"></path>
    </defs>
    <g id="页面-1" stroke="none" stroke-width="1" fill="none" fill-rule="evenodd">
        <g id="景点推荐助手-默认状态" transform="translate(-384, -85)">
            <g id="编组-4" transform="translate(364, 80)">
                <g id="形状结合" transform="translate(20, 5.9077)">
                    <mask id="mask-2" fill="white">
                        <use xlink:href="#path-1"></use>
                    </mask>
                    <use id="蒙版" fill="#002C8C" xlink:href="#path-1"></use>
                    <ellipse id="椭圆形" fill="#006CFF" mask="url(#mask-2)" cx="-7.5" cy="-14.2769231" rx="38" ry="37.4153846"></ellipse>
                    <path d="M12.9542805,10.0923077 L10.7077983,10.0923077 L10.7077983,10.5846154 L11.2077983,10.5846154 L11.2077983,14.711852 L10.7077983,14.711852 L10.7077983,15.2041597 L13.4542805,15.2041597 L13.4542805,14.711852 L12.9542805,14.711852 L12.9542805,10.0923077 Z M11.9542805,9.35384615 C12.5065653,9.35384615 12.9542805,8.91301886 12.9542805,8.3692308 C12.9542805,8.01746159 12.7636816,7.69241344 12.4542805,7.51652884 C12.1448794,7.34064423 11.7636816,7.34064423 11.4542805,7.51652884 C11.1448794,7.69241344 10.9542805,8.01746159 10.9542805,8.3692308 C10.9542805,8.91301886 11.4019958,9.35384615 11.9542805,9.35384615 Z" fill="#FFFFFF" fill-rule="nonzero" mask="url(#mask-2)"></path>
                </g>
            </g>
        </g>
    </g>
</svg>